<?xml version="1.0" encoding="UTF-8"?>
<svg id="Layer_1" data-name="Layer 1" xmlns="http://www.w3.org/2000/svg" viewBox="0 0 1395.27 433.8">
  <defs>
    <style>
      .cls-1, .cls-2 {
        fill: #010313;
      }

      .cls-3 {
        fill: #ff001e;
      }

      .cls-2 {
        font-family: BalooDa2-ExtraBold, 'Baloo Da 2';
        font-size: 311.37px;
        font-weight: 700;
      }
    </style>
  </defs>
  <text class="cls-2" transform="translate(0 250.19)"><tspan x="0" y="0">B</tspan></text>
  <text class="cls-2" transform="translate(645.81 250.4)"><tspan x="0" y="0">NCER</tspan></text>
  <g>
    <circle class="cls-3" cx="307.35" cy="155.91" r="100.08"/>
    <circle class="cls-1" cx="308.85" cy="152.9" r="59.44"/>
  </g>
  <g>
    <path class="cls-3" d="M637.68,155.91c0,54.9-45.18,100.08-100.08,100.08s-100.08-45.18-100.08-100.08,45.18-100.08,100.08-100.08,100.08,45.18,100.08,100.08Z"/>
    <circle class="cls-1" cx="537.6" cy="152.9" r="59.44"/>
    <path class="cls-1" d="M637.56,155.69c-32.76-.35-65.83-.54-99.21-.54-33.96,0-67.62.18-100.95.54,0-54.9,45.18-100.08,100.08-100.08s100.08,45.18,100.08,100.08Z"/>
  </g>
</svg>