<?xml version="1.0" encoding="UTF-8"?>
<svg xmlns="http://www.w3.org/2000/svg" viewBox="0 0 948.16 1025.4">
  <defs>
    <style>
      .cls-1, .cls-2 {
        fill: #414042;
      }

      .cls-1, .cls-3 {
        mix-blend-mode: screen;
      }

      .cls-4, .cls-5 {
        fill: #58595b;
      }

      .cls-6 {
        fill: #231f20;
      }

      .cls-3 {
        fill: #e1b39b;
      }

      .cls-7 {
        isolation: isolate;
      }

      .cls-8 {
        fill: #f1f1f2;
      }

      .cls-8, .cls-9, .cls-5 {
        mix-blend-mode: multiply;
      }

      .cls-8, .cls-5 {
        opacity: .7;
      }

      .cls-10 {
        fill: #fed1b4;
      }

      .cls-11 {
        fill: #fff;
      }

      .cls-12 {
        fill: #4b1e0a;
      }

      .cls-9 {
        fill: #f4bd9f;
      }
    </style>
  </defs>
  <g class="cls-7">
    <g id="Layer_1" data-name="Layer 1">
      <path class="cls-12" d="M947.6,368.84c-3.09-34.14-15.12-63.98-33.72-92.54-3.44-5.28-7.3-10.01-11.32-14.53-3.36-48.64-18.29-90.27-48.25-129.71-23.77-31.3-65.22-74.98-108.53-70.87h0C724.3,5.2,632.5-2.39,582.74.53c-91.5,5.37-177.08,54.15-255.64,97.29-42.74,23.47-87.15,44.8-131.55,64.96-42.75,19.41-81.63,31.15-118.78,61.32-32.84,26.68-63.49,57.71-74.25,99.65-10,38.87,11.63,75.99,34.06,105.55.27.35.57.6.9.77-11.73,29.12-12.73,60.1,10.38,91.87.7.96,1.74,1.01,2.63.6.49,4.17,1.16,8.37,2.16,12.67,1.01,4.3,6.59,2.97,8.21-.12,5.12-9.82,9.13-20.07,13.33-30.26-1.69,22.62,1.87,57.02,18.5,74.78-15.9,13.63-20.54,33.86-19.81,57.87.97,31.64,13.92,64.17,37.86,85.23,11.82,10.4,28.55,16.64,41.82,11.28,6.66,52.43,21.07,102.63,54.11,142.83,62.57,76.11,163.11,125.66,258.67,144.95,79.48,16.06,168.62-23.61,229.66-72.12,26.87-21.37,51.74-45.97,70.19-75.11,8.75-13.81,16.04-28.5,21.71-43.82,5.81-15.71,6.88-32.59,12.11-48.16,9.23-27.48,14.76-55.3,18.41-83.55,7.12,7.77,31.1.69,38.59-3.53,25.46-14.35,40.2-42.3,42.22-70.83,1.25-17.67-10.22-58.64-27.34-68.61,6.14-3.79,10.43-10.62,14.24-16.75,2.32-3.74,3.43-7.66,4.06-11.65,12.37.44,20.6-11.44,26.47-20.99,10.21-16.67,10.83-33.65,10.1-52.05,16.46-24.73,24.69-54.13,21.82-85.75Z"/>
      <path class="cls-10" d="M86.56,658.13c-5-19.19-6.33-43,2.4-61.28,2.36-4.94,5.77-9.08,9.77-12.33,2.05.35,4.37-1.34,4.78-3.35,13.51-7.73,31.32-6.13,41.89,9.73.6,18.95.92,38.61,1.48,58.52-4.68-8.59-14.07-21.39-24.57-18.95-15.63,3.63-12.35,32.86-3.54,27.35.67-.42.37-1.6-.48-1.24-7.48,3.22-2.07-15.46-.47-17.4,5.37-6.48,15.23,10.42,16.78,13.3,3.52,6.52,5.44,14.35,7.86,21.83-2.33,1.94-4.7,3.82-7.23,5.51-1.47.98-.75,3.88,1.12,2.86,2.59-1.41,5.01-3.01,7.39-4.69,1.31,3.65,2.8,7.16,4.78,10.29.73,12.5,1.7,25.01,3.09,37.41-32.4,10.7-58.94-44.2-65.03-67.55Z"/>
      <path class="cls-10" d="M808.48,589.55c-1.18,59.4-1.5,124.58-18.67,181.65-1.34,4.48-2.76,8.87-4.21,13.25-3.15,21.51-6.41,42.75-15.23,63.16-20.25,46.9-58.07,80.52-101.18,106.5-40.46,24.37-83.87,48.12-130.24,58.83-32.84,7.58-77.92-.31-110.26-7.94-39.01-9.19-76.33-25.42-110.61-46.06-47.65-28.7-91.92-65.55-117.95-115.67-7.63-14.69-13.72-29.87-18.31-45.4-21.67-66.66-18.3-144.42-21.32-211.82-.88-19.83-2.16-39.74-3.2-59.67,1.77,4.64,3.73,9.24,6.01,13.75.88,1.74,3.08,0,3.2-1.31,4.59-48.64,18.39-85.04,48.78-123.38,16.31-20.59,35.87-38.34,56.53-54.61-20.65,27.88-36.83,63.21-37.11,95.48-.02,2.44,2.39,4.22,4.71,3.08,8.79-4.32,13.62-11.13,21.2-17.74,15.25-13.29,32.05-24.74,48.91-35.85,27.83-18.35,56.11-35.96,83.85-54.41-19.56,19.51-39.43,43.4-43.64,67.04-.39,2.2.3,5.37,3.18,5.41,50.29.72,106.88-37.16,148.78-61.94,11.06-6.54,22.29-13.31,33.12-20.62-19.13,17.52-39.08,35.92-53.5,55.95-1.12,1.56-.48,4.38,1.92,3.34,40.47-17.29,76.27-40.15,109.23-69.37,15.74-13.96,36.23-35.44,48.14-57.52-1.68,5.7-3.42,11.36-5.43,16.89-10.88,30.16-35.27,76.09-61.46,95.6-1.81,1.34-2.81,5.65.53,5.83,64.89,3.43,116.7-33.17,149.42-86.26,3.18-5.16,5.85-10.8,8.07-16.71-1.16,14.02-3.36,28-6.96,42.15-5.05,19.87-16.18,36.74-22.8,55.61-.51,1.45.13,2.99,1.47,3.68,13.15,6.82,35.02,0,48.32-3.76,14.53-4.08,26.9-12.17,37.21-22.5,2.59,8.56,4.96,17.2,6.86,26.05,13.93,64.77,13.94,133.33,12.64,199.29Z"/>
      <path class="cls-10" d="M877.78,588.59c6.46,17.2,8.82,35.1,4.89,53.12-5.21,23.84-37.52,60.66-64.78,53.93-.02-.01-.03,0-.05,0,2.09-16.79,3.49-33.73,4.67-50.82.55-1.6,1.07-3.22,1.65-4.82,1.65.88,3.64,1.33,5.41,1.64,5.99,1.08,16.59,1,21.23-3.73.54-.55-.08-1.26-.7-.88-3.83,2.27-10.4.44-14.37-.6-2.21-.56-4.34-1.19-6.39-2.23-.64-.32-1.21-.79-1.78-1.22-.08-.06-.11-.04-.17-.06.03-.04.06-.1.08-.15.09-.1.16-.13.29-.32.21-.32.33-.64.39-.94,2.48-4.12,5.42-7.93,7.71-12.15,2.05-3.77,4.31-7.33,7.12-10.59,7.65-8.89,14.45,2.11,15.62,9.11.14.86,1.26.24,1.32-.36,1.36-12.65-8.75-26.63-21.1-15.61-6.02,5.38-10.35,12.73-14.83,19.46.19-3.34.4-6.66.59-10.02.82-14.7,1.4-29.48,1.77-44.28,9.05-7.52,21.75-8.68,38.21-3.31,6.15,7.33,10.56,15.61,13.23,24.82Z"/>
      <path class="cls-6" d="M889.81,522.05c.48-7.74.02-15.65,2.69-23.25.19-.55-.56-.62-.8-.22-5.27,9.01-5.14,19.63-7.97,29.48-2.54,8.8-11.43,15.88-19.77,19.53-2.19.15-3.49.99-4.95,2.78-.2.24-.34.51-.5.78-12.88-2.95-23.74,1.6-32.07,11.67,1.26-56.69-1.3-113.73-11.65-169.35-2.92-15.66-7.44-30.36-13.11-44.41.73-1.03,1.38-2.12,2.08-3.17,4.78-16.44,12.94-35.61,8.66-52.78-2.23-8.96-5.57-17.73-9.35-26.15-2.59-5.8-10.57-24.83-19.86-35.49-2.78-2.34-5.65-4.61-8.65-6.72-1.74-.64-3.49-.84-5.21-.4,7.85,10.38,17.27,19.75,22.05,31.96.39,1.01.79,2.08,1.18,3.11,6.57,12.4,10.03,25.97,9.74,41.17.1,3.22.06,6.42-.31,9.55-.62,5.18-1.85,10.6-3.62,15.93-.28.86-.56,1.71-.87,2.55-.62,1.66-1.29,3.3-2.02,4.93-.1.23-.17.48-.29.7,0-.01-.01-.02-.02-.03-3.99,8.71-9.59,16.64-16.83,22.27-15.67,14.1-37.14,22.55-57.5,25.79-8.17,1.3-9.58,1.22-6.24-8.52,6.07-17.77,12.29-35.15,16.39-53.5,3.06-13.69,4.14-27.64,4.03-41.61.9-3.32,1.58-6.7,2.19-10.09.01-.03.01-.07.02-.11-.92-13.86-1.78-27.72-6.11-41.01-4.35-13.38-10.89-25.33-18.59-36.61,4.35,7.71,8,15.79,10.53,24.34.65,2.21,1.19,4.4,1.66,6.58.96,3.13,1.77,6.33,2.4,9.58-.34-.44-.67-.88-1.01-1.32.13,1.04.21,2.08.3,3.12.46.77.92,1.53,1.38,2.29,2.19,15.23.63,31.89-5.6,51.29-17.21,53.7-63.41,83.4-115.48,97.05-.64.17-25.96,6.03-22.28,2.41,4.69-4.62,8.78-8.59,12.44-14.13,11.52-17.57,24.36-33.69,35.21-51.79,8.66-14.43,12.68-31.96,16.97-48,.19-.71.32-1.4.5-2.11.41-12.92,1.34-25.79,3.44-38.52-3.51,9.97-6.36,20.37-9.24,30.79-9.7,18.45-27.58,35.14-40.77,49.24-18.97,20.25-41.87,36.94-64.55,52.77-9.02,6.3-18.31,12.14-27.7,17.85-34.94,21.24-14.48,3.48-5.59-5.39,15.08-15.06,29.68-30.13,43.97-45.84,26.68-20.26,48.92-45,56.59-79.44.47-2.13-2.36-2.13-2.9-.34-15,50.69-61.19,79.96-103.6,106.34-22.46,13.97-45.66,26.38-69.7,37.36-18.96,8.66-46.05,22.16-68.25,20.04,17.81-36.06,46.39-67.03,79.45-92.06,12.66-11.9,26.28-22.82,41.74-30.9,13.92-7.29,29.92-12.51,44.78-19.1-.11-.06-.28-.09-.48-.02-38.6,12.27-80.73,29.97-111.08,57.51-1.48,1.33-2.98,2.7-4.51,4.12-55.69,33.58-121.59,64.46-165.47,111.89-2.04-6.19-1.47-12.23,1.72-18.1,3.36-11.93,9.26-23.04,15.37-33.75,13.99-24.59,28.73-46.12,51.1-63.88,31.91-25.35,70.31-38.8,107.48-53.95.51-.2.42-1.04-.19-.83-44.05,14.66-94.95,27.39-129.09,61.31-3.95,3.92-7.85,8.2-11.69,12.73-30.6,21.87-59.34,48.1-80.33,79.21-11.48,17.01-21.11,34.34-27.9,53.71-3.49,9.96-7.94,24-7.88,34.61.14,22.16-5.13,3.02-7.86-8.6-.86-20.63-1.14-41.25-.33-61.8-3.12-17.04.66-34.94,7.79-51.22,21.93-59.74,70.16-110.59,126.13-141.71-6.6,2.17-13.12,4.59-19.39,7.66-19.96,9.8-38.82,21.13-55.97,34.66-27.51,31.66-49.39,65.6-63.44,105.9-.42,1.19-.75,2.43-1.14,3.63-11.86-53.63,5.97-111.62,55.98-143.18.51-.32.14-1.03-.4-.71-32.08,18.35-53.07,49.47-64.13,84.1-7.93,24.8-13.55,60.89,2.61,83.69-8.64,47.5-1.33,99.7.7,146.44.05,1.1.09,2.22.13,3.32-6.52-10.8-16.27-17.34-32.61-11.26-4.55,1.7-8.58,3.7-12.23,5.92-17.7-29-28.73-72.13-8.34-100.97,1.61-2.27-1.64-3.92-3.32-2.13-13.43,14.36-20.54,31.92-29.15,49.07-4.97-36.73,9.21-69.96,32.1-99.07.41-.53-.2-1.1-.67-.59-24.31,25.91-41.01,55.41-41.07,89.38-5.59-21.99-11.26-42.09-9.63-65.92,2.19-31.68,28.2-60.73,45.26-85.98.28-.41-.32-.75-.6-.39-16.48,20.33-33.68,42.5-44.46,65.95-23.93-40.35-38.81-82.2-16.63-127.22,18.14-36.86,59.38-67.69,93.2-89,30.76-19.37,67.73-27.58,100.34-43.25,35.05-16.85,70.63-32.73,104.85-51.23,65.64-35.48,133.58-72.05,206.42-90.06,38.02-9.4,77.16-11.66,116.06-7.61,38.48,4,96.54,23.49,104,67.6.18,1.07,1.81.41,1.76-.48-.4-7.01-1.7-13.45-3.77-19.36,40.28,10.74,77.49,55.44,101.32,86.95,24.58,32.51,40.79,66.44,48.98,105.59-15.22-15.27-33.1-27.34-49.55-41.8,2.92,4.29,5.84,8.58,8.75,12.86,29.84,34.08,55.99,72.49,70.4,115.37,20.26,60.32.66,108.33-43.2,150.49-1.69,1.63.26,4.12,2.23,2.77,14.34-9.89,26.6-21.76,36.44-35.11-3.73,24.64-9.8,46.65-32.05,61.92Z"/>
      <path class="cls-9" d="M795.84,390.26c-1.9-8.85-4.27-17.49-6.86-26.05-10.32,10.33-22.69,18.41-37.21,22.5-13.3,3.75-35.17,10.58-48.32,3.76-1.33-.69-1.98-2.23-1.47-3.68,6.62-18.88,17.75-35.74,22.8-55.61,3.6-14.15,5.8-28.13,6.96-42.15-2.22,5.92-4.89,11.56-8.07,16.71-32.71,53.09-84.53,89.69-149.42,86.26-3.33-.18-2.33-4.48-.53-5.83,26.2-19.51,50.58-65.44,61.46-95.6,2-5.53,3.75-11.19,5.43-16.89-11.91,22.08-32.4,43.56-48.14,57.52-32.96,29.22-68.76,52.08-109.23,69.37-2.4,1.03-3.04-1.79-1.92-3.34,14.43-20.03,34.37-38.43,53.5-55.95-10.83,7.31-22.06,14.09-33.12,20.62-41.89,24.78-98.49,62.67-148.78,61.94-2.88-.04-3.57-3.21-3.18-5.41,4.21-23.64,24.08-47.53,43.64-67.04-27.74,18.45-56.02,36.05-83.85,54.41-16.85,11.11-33.65,22.56-48.91,35.85-7.58,6.61-12.41,13.42-21.2,17.74-2.32,1.15-4.74-.64-4.71-3.08.28-32.27,16.46-67.59,37.11-95.48-20.65,16.26-40.22,34.01-56.53,54.61-30.39,38.34-44.19,74.73-48.78,123.38-.12,1.32-2.32,3.05-3.2,1.31-2.28-4.51-4.24-9.11-6.01-13.75,1.04,19.93,2.32,39.84,3.2,59.67,3.02,67.41-.35,145.16,21.32,211.82,4.59,15.53,10.68,30.71,18.31,45.4,26.03,50.12,70.3,86.98,117.95,115.67,34.29,20.65,71.6,36.87,110.61,46.06,32.34,7.63,77.42,15.52,110.26,7.94,46.38-10.71,89.79-34.46,130.24-58.83,43.1-25.98,80.92-59.6,101.18-106.5,8.82-20.42,12.08-41.65,15.23-63.16,1.45-4.38,2.86-8.78,4.21-13.25,17.17-57.07,17.5-122.25,18.67-181.65,1.3-65.96,1.29-134.51-12.64-199.29ZM241.69,502.45c15.71-56.92,88.32-90.28,88.32-90.28-39.25,74.58,145.24-9.82,145.24-9.82l-17.67,23.55c74.59-5.89,115.8-60.84,115.8-60.84l-33.36,45.14,54.96-1.96c54.31-1.94,88.6-28.13,102.62-41.43,4.27-4.62,7.29-7.64,7.29-7.64,0,0-2.46,3.07-7.29,7.64-14.31,15.51-42.88,49.27-20.19,49.27,29.44,0,68.7-19.62,74.58,25.52,5.89,45.14-78.51,25.52-164.86,27.48-86.36,1.96-100.1,7.85-115.8,45.14-15.7,37.29-33.36-25.52-107.95-17.67-74.58,7.85-127.58,31.4-121.69,5.88ZM761.29,767.66c-3.73,38.49-24.83,84.43-47.18,94.36-22.35,9.93-37.25,11.17-37.25,36.01s9.93,28.55-84.42,79.46c-115.47,57.11-266.94-21.1-319.08-79.46-52.15-58.35-73.17-98.76,19.94-113.66,93.12-14.9,98.62-40.6,122.21-17.01,23.59,23.59,75.12,41.28,67.67,33.83-7.45-7.45-32.28-13.66-21.1-23.59,11.17-9.93,31.03-18.62,72.01-12.42,40.97,6.21-13.66-74.5-6.21-57.11,7.45,17.38-4.97,42.22-19.86,37.25-14.9-4.97-19.87-8.69-33.52,2.48-13.66,11.17-37.25,21.11-29.8-12.42,7.45-33.52,11.12-118.35,11.12-118.35,4.92-22.75,18.68-24.43,39.78,25.23,21.11,57.11,81.94,89.39,139.06,100.57,57.11,11.17,130.36-13.66,126.64,24.83Z"/>
      <path class="cls-12" d="M794.75,229.75c.86.04,1.44-1.48.45-1.53-.87-.04-1.44,1.48-.45,1.53Z"/>
      <path class="cls-12" d="M815.82,581.34c-3.78-30.22-6.03-58.15-32.6-76.15-23.86-16.17-63.35-18.92-91.28-19.69-11.11-.31-22.22-.23-33.31.16-14.22-.84-28.64-1.08-43.64-.24-27.8,1.57-57.27,1.02-85.17,6.05-13.87,5.16-27.15,11.61-39.34,20.56-8.7,9.76-12.13,21.04-12.34,32.91-5.26-3.56-12.59-3.12-19.83-2.33-6.75.74-14.55,3.97-18.27,9.79-1.61-5.67-3.68-11.25-6.46-16.31-10.94-12.91-25.25-20.49-41.06-26.57-3.49-.51-7-.94-10.52-1.49-26.51,2.44-53.11,9.57-78.74,14.46-14.75,2.82-28.68,6.57-42.27,10.83-10.86,2.32-21.65,4.93-32.35,7.92-26.91,7.54-64.55,19.8-83.77,41.27-21.4,23.91-16.81,51.55-13.14,81.78,3.79,31.15,9.24,65.33,25.59,92.56,33.58,55.88,146.48,13.41,190.89.15,30.15-9,51.2-20.09,69.05-46.31.14-.21.32-.55.48-.8,13.68-16.7,25.66-37.43,31.26-58.17.44-3.43.88-6.87,1.21-10.32.58-6.01.54-11.82.06-17.6.13,0,.25-.08.24-.21-.51-9.79-2.25-18.1,3.79-26.9,8.33-12.13,24.34-9.58,32.54.47,4.37,5.37,7.34,11.99,10.04,18.73,2.85,10.95,6.41,21.66,10.57,32.21,10.81,19.77,25.89,37.01,44.76,49.36,22.96,19.59,45.63,24.99,76.11,26.36,46.31,2.09,166.15,15.88,185.16-46.49,9.25-30.39,6.25-64.86,2.36-96h0Z"/>
      <path class="cls-12" d="M811.62,648.88c-5.37,47.58-46.14,61.33-88.56,64.56-35.04,2.66-70.85,4.22-105.98,2.24-28.22-1.6-48.09-11.46-65.82-26.77-19.32-18.45-34.58-40.52-47.6-64.14-5.68-18.53-14.06-41.07-36.2-39.92-7.55.38-13.59,6.96-17.43,12.8-3.32,5.06-3.03,10.84-1.98,16.55.29,31.32-18.19,68.22-38.03,96.2-12.76,16.19-28.8,28.48-52.9,35.97-33.6,10.46-68.73,17.64-103.37,23.56-41.93,7.16-84.81,3.73-101.58-41.12-12.33-33-24.25-87.05-9.21-120.33,14.18-31.37,57-44.84,87.19-56.44,25.95-9.98,52.33-17.15,79.2-23.09,19.53-2.99,38.98-6.37,58.45-9.69,3.04-.52,6.08-.9,9.12-1.22,3.12.18,6.25.42,9.38.79,24.35,2.79,38.47,22.06,47.94,42.26-1.48,2.71-2.56,5.81-3.13,9.35-.2,1.16,1.15,1.62,1.83.7,6.36-8.53,14.54-12.87,24.6-15.75,12.19-3.5,20.75-.18,31.76,4.41,1.88.77,3.44-1.72,2.66-3.28-.97-1.91-2.49-3.6-4.37-5.05-.13-9.47.39-18.94,3.59-27.14,2.51-6.44,9.23-13.4,14.09-18.05.06-.05.18-.14.24-.2,15.29-2.87,30.3-6.92,46.04-8.13,19.71-1.5,39.4-2.94,59.07-4.78,27.51-.77,54.84-.21,82.44,3.17,32.1,3.94,76.91,6.61,98.29,33.59,22.67,28.63,24.23,83.96,20.27,118.96h0Z"/>
      <path class="cls-12" d="M348.93,534.34c-47.04,4.13-95.02,14.77-138.97,32.16-36.1,14.29-48.13,36.14-55.13,72.46-.09.4.01.69.18.88-1.03,7.24-1.28,14.65-.87,22.14-.16,3.93-.17,7.96.06,12.12,1.73,31.36,14.8,63.92,44.18,78.04,33.21,15.95,85.23-3.42,117.76-11.21,36.75-8.8,68.82-20.38,88.8-53.83,32.95-55.18,27.57-160.09-56-152.75h0Z"/>
      <path class="cls-6" d="M403.15,677.7c-15.45,36.66-51.11,49.63-87.06,58.45-30.13,7.38-61.01,15.64-92.22,15.82-37.72.23-55.33-30.4-63.05-62.77-6.48-27.17-1.64-57.16,11.05-81.82,4.3-8.34,10.03-17.16,17.41-23.1,9.31-7.49,20.31-12.85,31.34-17.23,28.1-11.17,58.41-16.93,88-22.59,32.44-6.21,75.68-15.69,96.99,16.9,20.94,32.04,11.28,83.8-2.45,116.34h0Z"/>
      <path class="cls-12" d="M549.89,672.33c26.46,28.61,60.22,33.31,98,34.34,33.44.9,88.34,9.11,117.55-13.36,25.83-19.88,31.88-54.43,27.1-85.48-.64-4.13-1.48-8.06-2.46-11.87-1.14-7.4-2.93-14.61-5.42-21.47.13-.22.16-.51-.01-.9-14.35-34.09-30.63-52.98-68.9-59.5-46.59-7.95-95.74-8.46-142.62-2.78-83.27,10.08-66.86,113.84-23.24,161.02h0Z"/>
      <path class="cls-6" d="M523.27,549.44c14.11-36.28,58.37-35.94,91.4-36.56,30.12-.56,60.96-1.2,90.77,3.92,11.7,2.01,23.57,4.99,34.22,10.39,8.45,4.29,15.89,11.73,21.81,19.01,17.51,21.51,28.43,49.85,27.71,77.77-.86,33.26-11.77,66.87-48.73,74.44-30.59,6.26-62.49,4.57-93.5,3.56-37-1.21-74.56-6.53-97.26-39.21-20.14-29.02-40.3-77.66-26.42-113.33h0Z"/>
      <path class="cls-12" d="M544.35,744.72c-1.64-1.39-4.14.35-4.48,2.14-.44,2.32-.69,4.41-.43,6.76.34,2.98,2.32,5.42,2.68,8.37.1.75.11,1.49.1,2.24-14.85,4.06-35.48-10.68-51.15-8.8-8.99,1.09-28.54,21.51-39.94,18.91-2.97-5.09-4.96-10.82-6.03-17.46-2.11-18.54,2.5-39.63,4.51-59.79,1.13-11.19,2.92-23.12,4.37-35.23.19-1.34.45-2.68.58-4.02.09-1,.14-1.99.22-2.98,1.33-12.72,2.06-25.53,1.03-37.82.26-5.29.69-10.61,1.57-15.98.05-.28-.31-.26-.37-.03-.79,3.22-1.39,6.43-1.91,9.65-.61-4.31-1.44-8.55-2.6-12.67-.06-.22-.37-.03-.33.15,1.65,8.53,1.86,16.88,1.37,25.18-.17,1.89-.34,3.79-.48,5.69-1.17,12.19-3.48,24.31-4.85,36.7-3.04,27.59-7.88,52.81-14.94,79.51-9.51,36.01,11.31,44.08,41.68,55.66,1.06.4,2.05-1.38.94-1.9-.45-.21-.8-.46-1.23-.67.17-.23.22-.53-.05-.71-9.67-6.78-17.17-13.28-22.31-21.15,7.94,1.85,19.45-5.26,25.36-8.66,17.68-10.19,36.67-3.66,55.09,2.07,3.47,1.08,6.19,1.05,8.67.12-.86,3.84-2.11,7.68-2.17,11.51-.01,1.19,1.41.83,1.82.12,3.89-6.65,8.7-12.93,11.1-20.31,2.17-6.61-3.39-12.79-7.84-16.58h0Z"/>
      <path class="cls-12" d="M627.14,864.54c-1.29-5.49-11.29-3.98-15.26-5.36-.89-.31-1.76-.2-2.51.16-28.32-10.16-54.59-8.78-85.69-2.96-16.58,3.11-32.73,7.74-48.58,13.42-16.63,5.97-49.05,29.08-66.52,20.62-.35-.17-.77.45-.44.7,21.8,16.69,46.94-8.4,68-17.69,40.48-17.86,90.05-20.6,131-9.41.14.49.36.96.78,1.37,3.1,3.04,7.03,5.14,11.47,4.68,2.54-.27,8.63-1.74,7.75-5.52h0Z"/>
      <path class="cls-12" d="M545.79,893.83c-22.19-2.78-51.26,3.35-63.49,21.67.13-.21-.04-.44-.26-.29-.29.19-.57.38-.86.57-.36.24-.25.85.22.78,22.59-2.91,42.05-15.65,64.07-19.89,1.37-.26,2.04-2.63.32-2.85h0Z"/>
      <path class="cls-12" d="M880.7,617.33c-2.09-9.14-6.94-17.19-16.68-23.34-8.88-5.61-20.11-5.07-30.12-4.13-4.55.43-6.38,2.28-7.24,4.91-.12.18-.17.37-.15.57-.24.9-.42,1.86-.54,2.91-.81,1.12-1.5,2.35-1.89,3.86-5.65,21.51-6.66,47.01-9.04,69.37-.73,6.84-9.03,38.11-7.18,58.64-3.22,9.37-7.75,18.89-9.43,23.87-9.06,26.82-16.52,54.46-27.22,80.65-12.19,29.81-35.52,33.78-58.68,44.52-2.57-.75-3.96-3.13-6.44-4.02-2.2-.77-5.05.92-6.82,1.95-4.36,2.55-10.23,6.05-12.93,10.41-2.35,3.77.28,11.68,3.71,15.13.12,1.38.3,2.85.59,4.5.29,1.6,2.07,1.68,3.26,1.28,19.32-6.52,38.34-15.07,57.43-22.55,9.43-3.69,19.39-7.42,27.45-13.55.19-.14.37-.29.57-.44,1.07-.84,2.09-1.74,3.08-2.67,11.77-10.67,16.71-27.84,21.97-42.82,8.96-25.49,11.81-57.23,27.08-80.28,39.64-13.78,41.38-57.82,49.85-94.61,3.05-13.27,2.71-24.86-.63-34.16h0Z"/>
      <path class="cls-4" d="M691.15,894.34c-.12-.32-.21-.6-.28-.76-1.4-3.9.38-5.64,3.49-7.66,2.86-1.85,5.16-4.35,8.19-5.98,2.29-1.24,4.49,0,6.77.72-3.59,1.78-7.17,3.74-10.7,6.05-3.9,2.56-6.21,4.91-7.48,7.63h0Z"/>
      <path class="cls-4" d="M812.74,769.38c-11.33,34.49-17.26,71.19-39.85,100.24-14.35,8.08-30.62,13.77-45.97,18.65-7.11,2.26-10.31,3.93-16.9,7.53-22.29,12.17.43-6.94.89-7.11,29.54-11.46,52.18-22.69,66.39-51.75,13.14-26.87,20.16-58.4,28.14-87.12.76-2.74,2.26-7.19,3.73-12.25,2.03,7.18,6.28,11.63,14.04,10.76-4.5,6.28-7.97,13.43-10.47,21.05h0Z"/>
      <path class="cls-4" d="M863.38,670.74c-2.61,13.01-3.17,23.58-7.95,36.44-1.71,4.26-3.38,8.53-5.01,12.83-9.43,17.39-21.03,19.99-34.77,7.79-.84-21.25,4.28-46.53,6.92-67.4,1.65-12.91,3.64-51.13,14.12-62.56,6.68.89,12.42,1.94,18.27,4.32,6.67,4.13,11.81,10.25,15.31,18.52,5.23,13.65-4.12,36.24-6.89,50.06h0Z"/>
      <path class="cls-11" d="M263.68,747.96c51.5-44.69,102.45-90.03,153.97-134.7.57-18.82-2.57-37.23-11.92-51.66-67.66,59.7-129.56,125.41-193.09,189.46,3.53.62,7.26.94,11.22.91,13.35-.08,26.63-1.68,39.82-4.01Z"/>
      <path class="cls-11" d="M161.35,691.23c50.64-54.49,106.41-104.36,164.85-150.03-6.06,1.03-11.99,2.19-17.58,3.26-3.37.65-6.76,1.3-10.14,1.95-48.76,41.86-94.02,87.56-139.44,133.1.45,3.26,1.03,6.49,1.79,9.68.16.68.35,1.35.53,2.03Z"/>
      <path class="cls-11" d="M275.77,551.03c-18.77,4.07-37.4,8.97-55.16,16.02-11.04,4.38-22.04,9.74-31.34,17.23-7.38,5.94-13.11,14.76-17.41,23.1-8.88,17.26-13.79,37.12-13.8,56.79,38.49-38.53,77-77.02,117.71-113.14Z"/>
      <path class="cls-11" d="M620.24,512.78c-1.86.03-3.72.06-5.57.1-33.03.62-77.29.28-91.4,36.56-6.83,17.55-5.39,38.25.2,58.2,32.59-31.27,64.76-62.98,96.77-94.86Z"/>
      <path class="cls-11" d="M649.68,512.57c-4.25-.03-8.51-.07-12.76-.03-36.17,36.11-72.51,72.04-109.44,107.37,1.21,3.29,2.56,6.49,3.94,9.67,38.06-40.29,77.96-78.88,118.26-117.01Z"/>
      <path class="cls-11" d="M670.91,702.74c39.15-33.46,79.07-66.07,116.25-101.75-3.85-20.01-12.99-39.2-25.69-54.78-2.98-3.66-6.35-7.36-10.03-10.69-55.45,51.14-109.27,103.99-162.87,157.06,17.98,6.83,38.25,8.75,58.38,9.41,7.94.26,15.94.55,23.96.76Z"/>
      <path class="cls-10" d="M704.88,359.17s-3.02,3.02-7.29,7.64c4.83-4.58,7.29-7.64,7.29-7.64Z"/>
      <path class="cls-3" d="M465.82,618.74s-3.97,59.59-11.92,101.3c-7.94,41.71,13.91,17.88,17.88-27.81,3.98-45.68-3.97-95.35-5.96-73.49Z"/>
      <path class="cls-9" d="M398.65,883.95s22.66,6.97,52.29-6.97c29.63-13.94,93.25-41.84,161.23-22.66,16.56,3.49,26.81,15.82,7.21,15.75-17.67-.06-35.97,7.78-57.76,10.4,21.79,7.84-6.98,20.92-56.65,33.99-49.68,13.07-31.38-7.85-27.89-15.69-33.12,19.17-73.21,7.84-78.43-14.82Z"/>
      <path class="cls-10" d="M483.7,883.91s35.76-24.83,66.54-14.9c11.92,2.98-80.45,29.79-66.54,14.9Z"/>
      <path class="cls-9" d="M148.5,688.27c-1.98-3.13-3.47-6.64-4.78-10.29-2.37,1.68-4.8,3.28-7.39,4.69-1.87,1.01-2.59-1.88-1.12-2.86,2.53-1.69,4.9-3.57,7.23-5.51-2.42-7.48-4.34-15.31-7.86-21.83-1.55-2.89-11.41-19.79-16.78-13.3-1.61,1.94-7.02,20.62.47,17.4.84-.36,1.15.82.48,1.24-8.81,5.5-12.08-23.73,3.54-27.35,10.5-2.44,19.9,10.37,24.57,18.95-.56-19.91-.88-39.57-1.48-58.52-8.22-12.34-20.82-15.96-32.36-13.36,3.99,3.54,7.44,7.82,10.03,12.73,16.03,30.28-51.65,53.84-3.18,79.74,20.39,10.9,13.58,31.98-2.18,44.47,9.89,9.74,21.45,15.31,33.89,11.21-1.38-12.4-2.35-24.9-3.09-37.41Z"/>
      <path class="cls-9" d="M856.42,586.54c-10.28-4.32-23.33-10.22-27.12-21.55-1.02.64-2.03,1.32-2.97,2.1-.2,8.1-.48,16.19-.81,24.27,31.27,1.41,51.31,23.08,57.28,49.56,2.37-11.38,2.22-22.71.16-33.84-5.7-8.33-13.98-15.27-26.54-20.54Z"/>
      <path class="cls-2" d="M600.39,223.96s-26.82,86.41-153.44,147.48c-70.02,32.77-13.41-35.75,75.98-89.38,41.71-23.84-56.61-11.92-199.63,87.89-38.73,28.31-37.24-37.24,93.85-84.91,87.9-29.8-83.42-32.78-184.73,80.44-53.63,64.06-49.16-37.24,90.87-114.71,58.1-34.27-65.55-14.9-126.63,52.14-61.08,67.04-35.75,8.94,14.9-44.69,50.65-53.63-68.53-1.49-90.88,102.79-16.39,84.92-50.65,32.78-8.94-49.16,41.71-81.93-29.8,2.98-47.67,40.23C46.21,389.32.03,280.57,140.06,219.49c140.04-61.08,213.03-98.32,293.48-143.01,80.45-44.69,259.22-92.36,287.52,2.98-46.18-52.14-123.65,5.96-123.65,5.96,0,0,96.83-40.22,96.83,47.67,28.3-37.25,65.55-40.22,96.83,16.39,1.49-47.67-23.84-64.06-23.84-64.06,0,0,71.51,62.57,84.91,98.32,13.41,35.75-2.98,31.28-31.28,10.43,0,0,74.49,86.41,67.04,154.93-7.45,68.53-61.08-96.83-123.65-148.97,41.71,52.14,20.86,128.12-8.94,148.97,14.9-71.51,8.94-131.1-32.77-165.36,4.47,41.71-10.43,132.58-77.47,168.34,38.73-49.16,8.94-140.03,8.94-140.03,0,0-23.84,77.46-71.51,104.28,38.73-61.08,17.88-92.36,17.88-92.36Z"/>
      <path class="cls-1" d="M652.54,46.68s-2.05-.68-5.98-1.57c-3.91-1-9.75-1.94-17.14-3.09-7.44-.84-16.49-1.83-26.9-1.63-10.38-.05-22.06,1.03-34.6,3-6.24,1.22-12.76,2.3-19.31,4.31-3.27.98-6.69,1.62-10,2.84-3.32,1.17-6.7,2.35-10.12,3.56-3.46,1.07-6.78,2.68-10.17,4.18-3.39,1.53-6.81,3.07-10.27,4.63-3.33,1.83-6.7,3.68-10.1,5.54-3.42,1.82-6.88,3.65-10.11,5.94-6.68,4.42-13.48,8.92-20.37,13.47-3.46,2.3-6.94,4.62-10.43,6.95-3.72,2.14-7.46,4.29-11.21,6.45-7.49,4.46-15.2,8.33-22.94,12.22-7.68,4.06-15.63,7.5-23.49,11.18-15.84,7.07-31.87,13.56-47.67,19.83-15.79,6.29-31.46,12.03-46.52,17.79-15.05,5.79-29.6,11.3-43.27,16.79-13.61,5.62-26.47,10.96-38.06,16.45-5.9,2.56-11.29,5.49-16.5,8.14-5.23,2.62-10.19,5.11-14.6,7.88-4.46,2.69-8.74,5.07-12.52,7.52-3.67,2.62-7.04,5.02-10.09,7.2-1.53,1.09-2.98,2.12-4.34,3.1-1.26,1.09-2.45,2.11-3.55,3.05-2.21,1.91-4.08,3.54-5.61,4.86-3.05,2.65-4.68,4.07-4.68,4.07,0,0,1.47-1.58,4.23-4.52,1.38-1.48,3.09-3.31,5.1-5.46,1.02-1.07,2.11-2.22,3.27-3.45,1.29-1.09,2.66-2.23,4.11-3.45,2.91-2.44,6.13-5.14,9.64-8.08,3.63-2.78,7.75-5.51,12.06-8.59,4.27-3.17,9.07-6.07,14.16-9.13,5.06-3.1,10.43-6.31,16.23-9.25,11.42-6.25,24.1-12.37,37.64-18.52,13.56-6.1,27.94-12.3,42.93-18.38,14.95-6.07,30.4-12.34,46.09-18.71,15.66-6.36,31.5-12.94,47.07-20.01,7.76-3.56,15.65-6.9,23.17-10.8,7.62-3.75,15.21-7.49,22.33-11.65,3.62-2.03,7.22-4.04,10.81-6.05,3.55-2.25,7.08-4.48,10.6-6.7,7.08-4.44,14.08-8.83,20.97-13.14,3.43-2.3,7.09-4.13,10.72-5.95,3.61-1.82,7.2-3.63,10.74-5.43,3.68-1.49,7.32-2.96,10.92-4.41,3.61-1.43,7.12-2.95,10.78-3.94,7.22-2.25,14.21-4.49,21.21-5.76,6.9-1.69,13.72-2.44,20.22-3.33,6.52-.72,12.81-1.08,18.77-1.22,5.98.11,11.63.02,16.92.57,10.6.61,19.71,2.33,27.14,3.76,14.83,3.32,22.73,6.93,22.73,6.93Z"/>
      <path class="cls-1" d="M698.72,165.86s1.68,1.72,3.93,5.33c1.11,1.8,2.37,4.06,3.53,6.78,1.17,2.71,2.45,5.83,3.37,9.36.47,1.77.97,3.61,1.48,5.52.33,1.94.67,3.95,1.02,6.01.7,4.14.97,8.56,1.15,13.13-.21,4.53.18,9.32-.59,14.04-.53,4.75-1.1,9.58-2.14,14.3l-1.58,7.07c-.68,2.3-1.36,4.6-2.03,6.87-1.26,4.58-2.89,8.95-4.66,13.08-1.71,4.15-3.32,8.19-5.26,11.82-1.87,3.66-3.77,7.04-5.53,10.15-1.65,3.17-3.54,5.85-5.2,8.24-1.62,2.41-3.13,4.45-4.35,6.13-2.47,3.35-3.98,5.19-3.98,5.19,0,0,.63-2.33,1.87-6.29,1.16-3.99,3.36-9.43,5.43-16.11,1.04-3.34,2.18-6.94,3.52-10.67,1.34-3.73,2.21-7.85,3.59-11.91,1.43-4.07,2.31-8.42,3.49-12.74.57-2.16,1.15-4.35,1.73-6.54l1.29-6.67c1.13-4.41,1.78-8.88,2.41-13.28.78-4.4,1.03-8.74,1.54-12.95.1-4.2.58-8.31.48-12.18-.02-3.89-.08-7.57-.36-10.97-.24-3.4-.63-6.52-1.02-9.3-.45-2.76-.87-5.19-1.35-7.17-.5-1.96-.84-3.58-1.21-4.61-.35-1.06-.54-1.63-.54-1.63Z"/>
      <path class="cls-1" d="M642.11,165.86s.88,1.75,1.95,5.01c1,3.25,2.27,8.01,2.87,13.85.34,2.91.59,6.1.59,9.46-.04,3.36.04,6.94-.46,10.58-.31,3.67-.82,7.44-1.59,11.23-.61,3.83-1.85,7.56-2.82,11.37-1.21,3.73-2.59,7.4-3.96,11-1.56,3.53-3.33,6.89-4.91,10.18-1.75,3.21-3.69,6.19-5.46,9.02-1.71,2.86-3.82,5.27-5.58,7.59-3.44,4.68-7.08,7.99-9.49,10.36-2.45,2.33-3.94,3.58-3.94,3.58,0,0,.69-1.86,2.01-4.95.68-1.54,1.47-3.41,2.48-5.47,1.05-2.04,1.92-4.52,3.09-7.06,1.05-2.61,2.42-5.3,3.59-8.26,1.17-2.97,2.37-6.09,3.77-9.22,1.19-3.23,2.29-6.61,3.64-9.93,1.11-3.41,2.23-6.87,3.36-10.33.94-3.51,2.14-6.96,2.95-10.44.84-3.48,1.89-6.86,2.49-10.24,1.54-6.68,2.53-13.02,3.4-18.53,1.57-11.01,2-18.79,2-18.79Z"/>
      <path class="cls-1" d="M609.33,162.88s.04,3.31-.62,9.09c-.39,2.87-.79,6.4-1.65,10.35-.77,3.98-1.76,8.46-3.2,13.24-1.23,4.86-3.13,9.93-5.04,15.35-2.28,5.25-4.24,11.04-7.26,16.53-1.42,2.8-2.86,5.65-4.32,8.53-1.58,2.81-3.26,5.62-4.99,8.42-3.29,5.73-7.34,11.07-11.17,16.58-3.92,5.44-8.54,10.32-12.72,15.42-4.35,4.95-9.24,9.25-13.63,13.71-4.54,4.31-9.43,7.93-13.83,11.58-4.3,3.79-9.08,6.46-13.17,9.28-4.19,2.7-7.87,5.37-11.56,7.11-3.6,1.84-6.73,3.44-9.32,4.77-5.18,2.56-8.18,3.92-8.18,3.92,0,0,2.49-2.22,6.91-5.91,2.22-1.81,4.91-4,8-6.52,3.19-2.34,6.3-5.65,9.99-8.8,3.54-3.35,7.71-6.54,11.52-10.59,3.87-3.98,8.11-7.97,12.28-12.31,4-4.49,8.14-9.11,12.34-13.82,3.88-4.96,8.18-9.72,11.84-14.97,3.75-5.18,7.75-10.19,10.99-15.6,1.73-2.64,3.44-5.25,5.14-7.83,1.57-2.66,3.12-5.29,4.64-7.88,3.15-5.13,5.67-10.38,8.4-15.21,2.29-5.01,4.87-9.62,6.74-14.08,8.04-17.67,11.87-30.35,11.87-30.35Z"/>
      <path class="cls-1" d="M242.86,338.66s.73-1.36,2.1-3.91c1.45-2.5,3.54-6.22,6.63-10.67,3.09-4.45,6.95-9.8,11.82-15.6,2.43-2.91,5.02-6.02,7.99-9.08,2.84-3.18,6.1-6.28,9.58-9.42,6.83-6.44,14.93-12.7,23.98-18.67,4.58-2.89,9.46-5.62,14.45-8.39,5.21-2.32,10.4-5.1,16.06-6.98,5.66-1.87,11.3-4.17,17.37-5.31,3-.7,6.02-1.4,9.05-2.1,3.06-.55,6.2-.76,9.31-1.14,12.3-1.56,24.59-1.84,36.35-3.78,11.91-1.49,23.85-3.82,35.45-6.45,5.77-1.48,11.5-2.95,17.15-4.39,5.59-1.71,11.18-3.19,16.55-5.03,10.75-3.66,21.11-7.36,30.67-11.52,4.81-2.02,9.44-4.09,13.82-6.28,4.48-2.04,8.71-4.18,12.68-6.41,4.07-2.08,7.8-4.33,11.35-6.48,3.64-2.04,6.93-4.19,9.98-6.3,3.13-2.01,5.95-4.03,8.44-6.05,2.53-1.98,4.95-3.7,6.86-5.57,1.99-1.78,3.78-3.37,5.33-4.76,1.44-1.5,2.66-2.78,3.65-3.82,1.99-2.1,3.05-3.22,3.05-3.22,0,0-.88,1.26-2.54,3.63-.84,1.18-1.88,2.65-3.11,4.36-1.38,1.59-2.98,3.42-4.76,5.46-1.74,2.12-3.98,4.11-6.33,6.41-2.31,2.34-4.96,4.71-7.9,7.1-2.88,2.49-6.01,5.05-9.47,7.52-3.39,2.59-7.09,5.13-11.05,7.6-3.9,2.6-8.05,5.13-12.46,7.58-4.34,2.59-9,4.92-13.8,7.3-9.57,4.83-19.97,9.3-30.95,13.35-5.46,2.09-11.16,3.81-16.86,5.77-5.76,1.75-11.63,3.4-17.59,4.94-11.98,2.84-24.16,5.39-36.64,7.08-12.57,1.89-24.94,2.01-36.67,3.4-2.89.32-5.79.49-8.64.92-2.83.56-5.64,1.12-8.44,1.67-5.67.84-10.99,2.84-16.33,4.38-5.36,1.53-10.26,4.1-15.32,5.93-4.84,2.35-9.6,4.66-14.1,7.16-8.85,5.26-17.08,10.6-24.15,16.28-1.79,1.41-3.53,2.79-5.23,4.14-1.64,1.44-3.24,2.83-4.8,4.2-3.2,2.65-6.04,5.39-8.72,7.97-5.37,5.14-9.72,9.97-13.24,14.01-3.45,4.09-6.17,7.33-7.92,9.62-1.72,2.32-2.63,3.56-2.63,3.56Z"/>
      <path class="cls-1" d="M781.49,182.14s2.65.76,7.08,2.71c2.15,1.06,4.9,2.2,7.78,3.94,2.97,1.61,6.22,3.6,9.64,5.97,3.45,2.33,7.06,5.05,10.72,8.11,3.57,3.15,7.51,6.35,11.01,10.22,3.7,3.69,7.32,7.7,10.71,12.01,3.57,4.18,6.52,8.92,9.83,13.4,2.97,4.71,5.64,9.6,8.42,14.31,2.48,4.88,4.59,9.84,6.79,14.55,1.92,4.83,3.5,9.62,5.05,14.1,1.63,4.45,2.42,8.93,3.44,12.92.97,4.02,1.89,7.68,2.22,11.04.49,3.32.79,6.24,1.06,8.62.51,4.78.68,7.5.68,7.5,0,0-1.16-2.53-2.99-6.94-.89-2.21-2.01-4.88-3.14-7.96-1.07-3.11-2.78-6.43-4.33-10.14-1.71-3.65-3.18-7.73-5.24-11.83-2.05-4.1-4.2-8.41-6.28-12.91-2.38-4.36-5-8.77-7.35-13.4-2.75-4.4-5.41-8.96-8.31-13.35-3.02-4.3-5.69-8.87-8.97-12.9-3.17-4.1-6.09-8.31-9.37-12.01-3.11-3.86-6.34-7.39-9.36-10.82-3.15-3.28-6.08-6.47-8.93-9.27-11.38-11.24-20.18-17.88-20.18-17.88Z"/>
      <path class="cls-1" d="M189.69,295.36s.41-2.3,1.75-6.2c.76-1.89,1.55-4.3,2.87-6.82,1.19-2.62,2.75-5.45,4.62-8.47,1.89-2.98,4.01-6.21,6.59-9.35,2.57-3.15,5.28-6.52,8.55-9.54,3.08-3.22,6.6-6.18,10.22-9.15,3.63-2.95,7.67-5.46,11.57-8.16,4.16-2.27,8.23-4.72,12.44-6.7,4.26-1.88,8.49-3.63,12.62-5.18,4.18-1.4,8.3-2.55,12.16-3.66,3.89-1.03,7.68-1.56,11.13-2.18,3.43-.65,6.6-1.12,9.46-1.2,2.83-.21,5.32-.28,7.35-.35,4.07-.12,6.38-.07,6.38-.07,0,0-2.17.95-5.94,2.4-1.89.71-4.17,1.6-6.79,2.47-2.64.82-5.51,2.1-8.66,3.35-3.13,1.24-6.52,2.59-10.11,4.02-3.49,1.62-7.15,3.35-10.99,4.93-3.77,1.76-7.46,3.96-11.39,5.8-3.76,2.15-7.58,4.34-11.4,6.52-3.63,2.46-7.4,4.74-10.91,7.26-3.41,2.64-7.04,4.92-10.12,7.67-3.22,2.59-6.23,5.21-9.05,7.78-2.78,2.59-5.36,5.13-7.71,7.51-2.27,2.46-4.44,4.67-6.21,6.78-1.84,2.05-3.32,3.95-4.61,5.49-2.48,3.13-3.82,5.06-3.82,5.06Z"/>
      <path class="cls-5" d="M731.81,886.66c19.48-14.67,41.62-22.19,53.36-47.22,7-14.92,10.86-28.96,15.03-44.79,2.56-9.72,7.06-34.92,17.39-46.79-4.29-1.35-6.95-5.09-8.43-10.29-1.46,5.06-2.96,9.51-3.73,12.25-7.98,28.72-15,60.25-28.14,87.12-14.21,29.06-36.85,40.29-66.39,51.75-.47.18-23.18,19.28-.89,7.11,6.59-3.6,9.79-5.27,16.9-7.53,1.61-.51,3.26-1.08,4.89-1.61Z"/>
      <path class="cls-5" d="M837.43,717.14c-6.78-21,5.2-43.36,8.8-63.96,2-11.44,3.22-36.07,11.23-49.18-.83-.62-1.61-1.29-2.5-1.84-5.85-2.37-11.59-3.43-18.27-4.32-10.47,11.43-12.46,49.64-14.12,62.56-2.64,20.87-7.76,46.14-6.92,67.4,11.18,9.92,20.94,10.05,29.27.39-3.33-2.95-6.03-6.52-7.49-11.05Z"/>
      <path class="cls-8" d="M859.71,620.34c-.11,18.87-.97,37.45-4.3,56.06-2.65,14.8-9.38,28.3-12.79,42.91-2.62,11.22,14.61,15.98,17.24,4.76,3.99-17.07,10.97-32.71,14.09-50.15,3.15-17.63,3.54-35.72,3.64-53.57.07-11.53-17.81-11.52-17.88,0h0Z"/>
      <path class="cls-11" d="M865.57,620.97s0,17.13-8.94,52.14c-8.94,35.01-6.44,39.51-.61,22.36,5.82-17.15,20.72-68.54,9.55-74.5Z"/>
      <path class="cls-11" d="M814.11,764.5s-.32,1.98-1.02,5.39c-.75,3.41-1.67,8.32-3.05,14.12-2.71,11.63-6.8,27-11.34,42.23-1.19,3.94-2.48,7.59-3.7,11.34-1.24,3.72-3.15,7.39-4.68,10.89-2,3.31-3.59,6.68-5.94,9.39-1.11,1.38-2.07,2.82-3.22,4.02-1.19,1.16-2.35,2.28-3.46,3.36-4.57,4.14-9.07,6.56-12.1,8.29-3.13,1.6-4.94,2.43-4.94,2.43,0,0,1.54-1.29,4.3-3.4,1.37-1.06,2.93-2.47,4.76-4.01,1.69-1.69,3.66-3.51,5.53-5.71,1.86-2.22,3.78-4.66,5.45-7.51,1.95-2.64,3.13-6.02,4.88-9.14,1.29-3.39,2.7-6.7,3.93-10.39,1.15-3.71,2.31-7.49,3.47-11.27,4.59-15.22,9.63-30.3,13.78-41.49,2.03-5.61,3.97-10.22,5.22-13.47,1.3-3.24,2.12-5.06,2.12-5.06Z"/>
    </g>
  </g>
</svg>